name analog
datacolumns 19
datarows 52
range 0.3065 0.332
endheader
time	ground_force_vx	ground_force_vy	ground_force_vz	ground_force_px	ground_force_py	ground_force_pz	l_ground_force_vx	l_ground_force_vy	l_ground_force_vz	l_ground_force_px	l_ground_force_py	l_ground_force_pz	ground_torque_x	ground_torque_y	ground_torque_z	l_ground_torque_x	l_ground_torque_y	l_ground_torque_z
0.3065	-0.0	-0.0	-0.0	15.830857276916504	5.996021747589111	-348.1709289550781	22.31504821777344	0.8034302592277527	-270.4347839355469	-0.0	-0.0	-0.0	-0.0	-0.0	-0.0	76734.1953125	-17603.357421875	736.1441040039062
0.307	-0.0	-0.0	-0.0	17.582246780395508	5.874837398529053	-354.94586181640625	23.62892341613769	1.011550784111023	-278.2111511230469	-0.0	-0.0	-0.0	-0.0	-0.0	-0.0	78648.734375	-17983.662109375	995.9751586914062
0.3075	-0.0	-0.0	-0.0	19.56127548217773	5.663519859313965	-359.4711303710937	24.419654846191406	0.5780953764915466	-284.90771484375	-0.0	-0.0	-0.0	-0.0	-0.0	-0.0	80309.453125	-18689.05859375	1206.784423828125
0.308	-0.0	-0.0	-0.0	21.499732971191406	5.834373950958252	-367.1159973144531	25.177610397338867	0.36946702003479	-293.7626647949219	-0.0	-0.0	-0.0	-0.0	-0.0	-0.0	82883.8046875	-19401.162109375	1209.99609375
0.3085	-0.0	-0.0	-0.0	23.33211326599121	6.005617141723633	-374.0564575195313	26.54862594604492	-0.0643269717693328	-304.4905090332031	-0.0	-0.0	-0.0	-0.0	-0.0	-0.0	85819.9375	-20173.71875	1329.226318359375
0.309	-0.0	-0.0	-0.0	25.699464797973636	5.567234039306641	-380.0487060546875	28.193403244018555	-0.3128102719783783	-315.8513488769531	-0.0	-0.0	-0.0	-0.0	-0.0	-0.0	89129.9140625	-20904.962890625	1686.7177734375
0.3095	-0.0	-0.0	-0.0	29.26773834228516	5.347824096679688	-389.2992248535156	30.161666870117188	-1.5014686584472656	-327.8533935546875	-0.0	-0.0	-0.0	-0.0	-0.0	-0.0	92493.984375	-21802.447265625	2240.27587890625
0.31	-0.0	-0.0	-0.0	33.020851135253906	5.234792232513428	-398.9986267089844	32.76526641845703	-1.6444737911224363	-337.0532531738281	-0.0	-0.0	-0.0	-0.0	-0.0	-0.0	95646.84375	-22703.00390625	2873.92578125
0.3105	-0.0	-0.0	-0.0	37.41543197631836	5.008946895599365	-408.0172729492188	35.30689239501953	-2.231804132461548	-351.3404541015625	-0.0	-0.0	-0.0	-0.0	-0.0	-0.0	98413.78125	-23892.03125	3292.1064453125
0.311	-0.0	-0.0	-0.0	42.5118293762207	4.676325798034668	-422.8267211914063	37.790794372558594	-2.537602424621582	-358.860107421875	-0.0	-0.0	-0.0	-0.0	-0.0	-0.0	101041.1484375	-24350.05078125	3876.800048828125
0.3115	-0.0	-0.0	-0.0	46.2642822265625	4.807292461395264	-433.0441589355469	40.71825408935547	-3.2205936908721924	-369.8699645996094	-0.0	-0.0	-0.0	-0.0	-0.0	-0.0	104018.484375	-24844.80859375	4274.3271484375
0.312	-0.0	-0.0	-0.0	49.67211151123047	5.198769569396973	-445.7130737304688	43.12567138671875	-3.3501365184783936	-379.6451721191406	-0.0	-0.0	-0.0	-0.0	-0.0	-0.0	107275.5625	-25216.900390625	4857.13134765625
0.3125	-0.0	-0.0	-0.0	52.5922966003418	5.19319486618042	-457.3680419921875	44.49741744995117	-3.6447558403015137	-391.4459838867188	-0.0	-0.0	-0.0	-0.0	-0.0	-0.0	109874.8046875	-25564.365234375	5128.94189453125
0.313	-0.0	-0.0	-0.0	54.76189041137695	6.102880001068115	-470.20849609375	44.80462646484375	-4.245098114013672	-401.3609924316406	-0.0	-0.0	-0.0	-0.0	-0.0	-0.0	112392.59375	-25475.03515625	4824.67041015625
0.3135	-0.0	-0.0	-0.0	57.69197463989258	6.464434623718262	-478.4656066894531	45.38387680053711	-4.61618709564209	-409.6694030761719	-0.0	-0.0	-0.0	-0.0	-0.0	-0.0	115037.890625	-25538.130859375	4577.58203125
0.314	-0.0	-0.0	-0.0	61.06698989868164	7.088258743286133	-489.7864990234375	47.34804153442383	-5.005581855773926	-420.4207458496094	-0.0	-0.0	-0.0	-0.0	-0.0	-0.0	117975.78125	-25147.951171875	4822.24853515625
0.3145	-0.0	-0.0	-0.0	64.06214141845703	8.425068855285645	-499.5819091796875	49.05706787109375	-5.364279747009277	-432.0127868652344	-0.0	-0.0	-0.0	-0.0	-0.0	-0.0	121287.0	-24668.986328125	5090.3974609375
0.315	-0.0	-0.0	-0.0	66.7528305053711	9.297160148620604	-509.2854614257813	49.30464553833008	-6.005874633789063	-445.7395935058594	-0.0	-0.0	-0.0	-0.0	-0.0	-0.0	124879.5859375	-24544.2265625	4993.638671875
0.3155	-0.0	-0.0	-0.0	69.18077087402344	9.645394325256348	-521.5702514648438	48.898414611816406	-7.326175689697266	-459.2999877929688	-0.0	-0.0	-0.0	-0.0	-0.0	-0.0	128693.7421875	-23510.232421875	4438.78515625
0.316	-0.0	-0.0	-0.0	70.36384582519531	9.50993537902832	-530.660400390625	47.969268798828125	-8.171932220458984	-472.5853271484375	-0.0	-0.0	-0.0	-0.0	-0.0	-0.0	131932.671875	-22471.345703125	3836.818603515625
0.3165	-0.0	-0.0	-0.0	71.01156616210938	9.339070320129396	-541.2553100585938	45.90163803100586	-9.004697799682617	-481.13092041015625	-0.0	-0.0	-0.0	-0.0	-0.0	-0.0	134513.71875	-21086.404296875	3143.700439453125
0.317	-0.0	-0.0	-0.0	70.27476501464844	9.091300964355469	-549.4036254882812	42.7354621887207	-10.16082000732422	-489.2827453613281	-0.0	-0.0	-0.0	-0.0	-0.0	-0.0	136778.84375	-19529.560546875	2030.7779541015625
0.3175	-0.0	-0.0	-0.0	68.73202514648438	8.939213752746582	-559.5531005859375	38.65110397338867	-11.662145614624023	-498.0720520019531	-0.0	-0.0	-0.0	-0.0	-0.0	-0.0	138814.046875	-17818.388671875	799.8052978515625
0.318	-0.0	-0.0	-0.0	66.68045043945312	10.336187362670898	-567.5950927734375	33.99576568603516	-12.737770080566406	-502.2476806640625	-0.0	-0.0	-0.0	-0.0	-0.0	-0.0	140411.828125	-15277.94140625	-683.2837524414062
0.3185	-0.0	-0.0	-0.0	62.91372299194336	11.630193710327148	-573.7355346679688	28.318490982055664	-13.71274757385254	-506.4635620117188	-0.0	-0.0	-0.0	-0.0	-0.0	-0.0	141422.015625	-12876.5458984375	-2505.86865234375
0.319	-0.0	-0.0	-0.0	60.07966232299805	13.486391067504885	-577.3681030273438	22.90431404113769	-13.712687492370604	-511.0010681152344	-0.0	-0.0	-0.0	-0.0	-0.0	-0.0	142432.515625	-10718.55078125	-4045.505126953125
0.3195	-0.0	-0.0	-0.0	57.0490608215332	15.021647453308104	-581.334228515625	17.845598220825195	-14.025786399841309	-514.3216552734375	-0.0	-0.0	-0.0	-0.0	-0.0	-0.0	143574.359375	-8462.455078125	-5488.17138671875
0.32	-0.0	-0.0	-0.0	54.01791763305664	15.842453002929688	-587.0752563476562	13.904791831970217	-14.7092866897583	-520.3452758789062	-0.0	-0.0	-0.0	-0.0	-0.0	-0.0	145119.640625	-6441.97216796875	-6808.951171875
0.3205	-0.0	-0.0	-0.0	51.67387008666992	16.51009178161621	-590.6068725585938	10.333632469177246	-15.519614219665527	-526.3507080078125	-0.0	-0.0	-0.0	-0.0	-0.0	-0.0	146947.5625	-4528.86083984375	-7635.4755859375
0.321	-0.0	-0.0	-0.0	49.64052200317383	16.51030921936035	-596.9696044921875	7.515666484832764	-16.298423767089844	-530.8890991210938	-0.0	-0.0	-0.0	-0.0	-0.0	-0.0	148512.40625	-2443.41455078125	-8401.306640625
0.3215	-0.0	-0.0	-0.0	47.16841125488281	17.023906707763672	-598.37646484375	5.318827152252197	-17.863536834716797	-534.7294921875	-0.0	-0.0	-0.0	-0.0	-0.0	-0.0	149329.359375	-354.76873779296875	-9085.5263671875
0.322	-0.0	-0.0	-0.0	44.31385803222656	17.738121032714844	-601.4701538085938	2.370805263519287	-19.167564392089844	-537.2483520507812	-0.0	-0.0	-0.0	-0.0	-0.0	-0.0	149682.84375	1694.513916015625	-9755.0888671875
0.3225	-0.0	-0.0	-0.0	41.21349334716797	18.718263626098636	-601.8221435546875	-0.2225154340267181	-20.444265365600582	-537.959716796875	-0.0	-0.0	-0.0	-0.0	-0.0	-0.0	150020.3125	3659.9951171875	-10343.0224609375
0.323	-0.0	-0.0	-0.0	37.73674774169922	20.745628356933597	-602.0855712890625	-2.728785276412964	-21.81545639038086	-538.745849609375	-0.0	-0.0	-0.0	-0.0	-0.0	-0.0	150293.546875	5570.48486328125	-10813.126953125
0.3235	-0.0	-0.0	-0.0	34.65766525268555	21.99323463439941	-603.1426391601562	-4.923923015594482	-23.075220108032227	-539.3510131835938	-0.0	-0.0	-0.0	-0.0	-0.0	-0.0	150380.9375	7413.03564453125	-11318.8583984375
0.324	-0.0	-0.0	-0.0	31.29055976867676	23.084774017333984	-603.1429443359375	-6.919441223144531	-24.111820220947266	-540.140380859375	-0.0	-0.0	-0.0	-0.0	-0.0	-0.0	150948.421875	9164.2841796875	-11691.4384765625
0.3245	-0.0	-0.0	-0.0	28.56961250305176	24.66684913635254	-601.28857421875	-8.272420883178711	-24.57676124572754	-540.0519409179688	-0.0	-0.0	-0.0	-0.0	-0.0	-0.0	150908.203125	10805.6396484375	-11914.869140625
0.325	-0.0	-0.0	-0.0	25.871381759643555	26.36039924621582	-601.2882080078125	-9.248167037963867	-25.922548294067383	-539.7894287109375	-0.0	-0.0	-0.0	-0.0	-0.0	-0.0	150933.28125	12205.685546875	-12049.32421875
0.3255	-0.0	-0.0	-0.0	23.37315368652344	27.229591369628903	-598.1091918945312	-9.979915618896484	-26.827783584594727	-539.439208984375	-0.0	-0.0	-0.0	-0.0	-0.0	-0.0	150950.375	13677.470703125	-12057.51171875
0.326	-0.0	-0.0	-0.0	20.78604888916016	28.743532180786133	-598.5524291992188	-9.869132041931152	-28.0640811920166	-540.9234008789062	-0.0	-0.0	-0.0	-0.0	-0.0	-0.0	151168.3125	15123.6572265625	-11790.74609375
0.3265	-0.0	-0.0	-0.0	19.36062812805176	30.12510299682617	-596.7033081054688	-9.780638694763184	-29.83001136779785	-539.8738403320312	-0.0	-0.0	-0.0	-0.0	-0.0	-0.0	151182.359375	16378.8662109375	-11598.40234375
0.327	-0.0	-0.0	-0.0	16.90478515625	32.39830017089844	-594.4937133789062	-9.669475555419922	-31.705677032470703	-541.5341796875	-0.0	-0.0	-0.0	-0.0	-0.0	-0.0	151683.5625	18043.466796875	-11361.52734375
0.3275	-0.0	-0.0	-0.0	14.990376472473145	34.316707611083984	-592.8154907226562	-10.266706466674805	-33.539493560791016	-544.5001831054688	-0.0	-0.0	-0.0	-0.0	-0.0	-0.0	152199.484375	19304.20703125	-11391.53125
0.328	-0.0	-0.0	-0.0	12.80086612701416	36.65446090698242	-594.40185546875	-11.02311897277832	-34.86418533325195	-545.8102416992188	-0.0	-0.0	-0.0	-0.0	-0.0	-0.0	153049.484375	21038.4609375	-11563.6923828125
0.3285	-0.0	-0.0	-0.0	10.95107078552246	38.30427169799805	-594.1350708007812	-11.621112823486328	-35.3721809387207	-547.5557250976562	-0.0	-0.0	-0.0	-0.0	-0.0	-0.0	153903.5	21702.22265625	-11601.27734375
0.329	-0.0	-0.0	-0.0	8.58374309539795	39.35218048095703	-594.38427734375	-12.237286567687988	-36.23357391357422	-551.5738525390625	-0.0	-0.0	-0.0	-0.0	-0.0	-0.0	154828.25	23328.32421875	-11668.0576171875
0.3295	-0.0	-0.0	-0.0	6.42551851272583	39.63897705078125	-599.3557739257812	-13.592743873596191	-36.82666778564453	-555.5789794921875	-0.0	-0.0	-0.0	-0.0	-0.0	-0.0	155738.1875	24345.3828125	-12092.8701171875
0.33	-0.0	-0.0	-0.0	3.414231061935425	40.713523864746094	-601.9043579101562	-15.50074291229248	-38.174617767333984	-559.8607788085938	-0.0	-0.0	-0.0	-0.0	-0.0	-0.0	157416.125	25608.654296875	-12546.853515625
0.3305	-0.0	-0.0	-0.0	1.8546971082687376	41.59661102294922	-606.8486328125	-17.11669158935547	-39.76852035522461	-564.22021484375	-0.0	-0.0	-0.0	-0.0	-0.0	-0.0	158333.109375	26739.171875	-12942.0908203125
0.331	-0.0	-0.0	-0.0	0.6274805068969727	42.66892623901367	-611.622314453125	-19.78250503540039	-41.864479064941406	-570.4288330078125	-0.0	-0.0	-0.0	-0.0	-0.0	-0.0	159823.609375	27918.576171875	-13521.04296875
0.3315	-0.0	-0.0	-0.0	-1.2522454261779783	44.048583984375	-615.9328002929688	-22.7099609375	-44.46596908569336	-576.26953125	-0.0	-0.0	-0.0	-0.0	-0.0	-0.0	161619.890625	29025.578125	-14251.80078125
0.332	-0.0	-0.0	-0.0	-3.2544453144073486	46.12324905395508	-623.419921875	-25.36557388305664	-48.37891387939453	-581.67529296875	-0.0	-0.0	-0.0	-0.0	-0.0	-0.0	163310.359375	30099.96875	-14965.6953125
